# xmcd
#
# Track frame offsets: 
#        150
#        15102
#        30015
#        46477
#        60840
#        75602
#        91865
#        107712
#        120702
#        137937
#
# Disc length: 2076 seconds
#
# Revision: 0
# Processed by: cddbd v1.4PL0 Copyright (c) Steve Scherf et al.
# Submitted via: ExactAudioCopy v0.90b3
#
DISCID=68081a0a
DTITLE=Ronnie Milsap - There's No Gettin' Over Me
DYEAR=1900
DGENRE=Country
TTITLE0=Everywhere I Turn (There's Your Memory)
TTITLE1=(There's) No Gettin' Over Me
TTITLE2=It's All I Can Do
TTITLE3=Two Heart's Don't Always Make A Pair
TTITLE4=Jesus Is Your Ticket To Heaven
TTITLE5=I Wouldn't Have Missed It For The World
TTITLE6=Too Big For Words
TTITLE7=It Happens Every Time (I Think Of You)
TTITLE8=It's Written All Over Your Face
TTITLE9=I Live My Whole Life At Night
EXTD=
EXTT0=
EXTT1=
EXTT2=
EXTT3=
EXTT4=
EXTT5=
EXTT6=
EXTT7=
EXTT8=
EXTT9=
PLAYORDER=
